<svg id="visual" viewBox="0 0 3000 200" width="3000" height="200" xmlns="http://www.w3.org/2000/svg" xmlns:xlink="http://www.w3.org/1999/xlink" version="1.1"><path d="M0 124L17.8 112.2C35.7 100.3 71.3 76.7 107 79.5C142.7 82.3 178.3 111.7 214 118.5C249.7 125.3 285.3 109.7 321.2 100.7C357 91.7 393 89.3 428.8 76C464.7 62.7 500.3 38.3 536 31C571.7 23.7 607.3 33.3 643 54C678.7 74.7 714.3 106.3 750 110C785.7 113.7 821.3 89.3 857 95.8C892.7 102.3 928.3 139.7 964 159.7C999.7 179.7 1035.3 182.3 1071.2 169.8C1107 157.3 1143 129.7 1178.8 104.3C1214.7 79 1250.3 56 1286 45.8C1321.7 35.7 1357.3 38.3 1393 63.8C1428.7 89.3 1464.3 137.7 1500 141.5C1535.7 145.3 1571.3 104.7 1607 79C1642.7 53.3 1678.3 42.7 1714 60.8C1749.7 79 1785.3 126 1821.2 133.8C1857 141.7 1893 110.3 1928.8 108.5C1964.7 106.7 2000.3 134.3 2036 151.7C2071.7 169 2107.3 176 2143 166.5C2178.7 157 2214.3 131 2250 115.5C2285.7 100 2321.3 95 2357 100.2C2392.7 105.3 2428.3 120.7 2464 109.7C2499.7 98.7 2535.3 61.3 2571.2 51.2C2607 41 2643 58 2678.8 59.3C2714.7 60.7 2750.3 46.3 2786 39.5C2821.7 32.7 2857.3 33.3 2893 56.7C2928.7 80 2964.3 126 2982.2 149L3000 172" fill="none" stroke-linecap="round" stroke-linejoin="miter" stroke="#65b492" stroke-width="40"></path></svg>